<svg viewBox="0 0 200 200" xmlns="http://www.w3.org/2000/svg">
  <path fill="#F2F4F8" d="M47.2,-75.9C61.3,-73.5,73,-61.2,74.9,-46.9C76.9,-32.6,69.1,-16.3,65,-2.4C60.8,11.5,60.3,23,57.9,36.6C55.5,50.2,51.3,65.9,41.4,76.7C31.4,87.5,15.7,93.5,3.3,87.9C-9.2,82.2,-18.3,64.9,-32.3,56.3C-46.2,47.8,-64.9,48.1,-72.2,40.1C-79.5,32.2,-75.3,16.1,-75.6,-0.1C-75.8,-16.4,-80.4,-32.7,-73.5,-41.4C-66.7,-50,-48.3,-51,-34.2,-53.4C-20,-55.8,-10,-59.6,3.3,-65.2C16.5,-70.9,33,-78.4,47.2,-75.9Z" transform="translate(100 100)" />
</svg>