<svg id="logosandtypes_com" data-name="logosandtypes com" xmlns="http://www.w3.org/2000/svg" xmlns:xlink="http://www.w3.org/1999/xlink" viewBox="0 0 150 150"><defs><style>.cls-1{fill:none;}.cls-2{fill:url(#linear-gradient);}.cls-3{fill:url(#linear-gradient-2);}</style><linearGradient id="linear-gradient" x1="-39532.36" y1="-735.5" x2="-39532.36" y2="-735.5" gradientTransform="translate(1614.22 86.38) scale(0.04 0.06)" gradientUnits="userSpaceOnUse"><stop offset="0.01"/><stop offset="0.09" stop-color="#1d1d1d"/><stop offset="0.28" stop-color="#616161"/><stop offset="0.47" stop-color="#999"/><stop offset="0.63" stop-color="#c5c5c5"/><stop offset="0.79" stop-color="#e4e4e4"/><stop offset="0.91" stop-color="#f8f8f8"/><stop offset="1" stop-color="#fff"/></linearGradient><linearGradient id="linear-gradient-2" x1="17.69" y1="74.28" x2="144.23" y2="74.28" gradientUnits="userSpaceOnUse"><stop offset="0" stop-color="#3166ff"/><stop offset="0.31" stop-color="#484bff"/><stop offset="0.98" stop-color="#8405ff"/><stop offset="1" stop-color="#8503ff"/></linearGradient></defs><path id="Layer_3" data-name="Layer 3" class="cls-1" d="M0,.2H150v150H0Z" transform="translate(0 -0.2)"/><path class="cls-2" d="M32.93,42.25Z" transform="translate(0 -0.2)"/><path class="cls-3" d="M41.8,61.51c-.41.79-.27,39.42-.29,58.16a11.72,11.72,0,0,1-10,11.92A11.86,11.86,0,0,1,18,122.06c-.7-30,0-60.06-.26-90.07,0-5.22,2-9.33,6.85-11.67A11.43,11.43,0,0,1,38,22.67c9.8,10.3,81.12,86.85,85.18,91.57,3.19,3.72,3.49,8.13,1.39,12.46a11.24,11.24,0,0,1-11.29,6.7c-3.73-.14-6.54-2-9-4.65C100.33,124.51,58.65,79.74,41.8,61.51Zm71.48-44c-2.27,4.95-4.56,9.88-6.8,14.84a4.61,4.61,0,0,1-2.16,2.36c-4.22,2.16-8.41,4.37-12.62,6.54-3.13,1.26-4,5.18-.42,6.92,3.92,2.07,7.84,4.14,11.82,6.08a7.86,7.86,0,0,1,4,4.29c2,4.64,4.16,9.19,6.26,13.79a3.48,3.48,0,0,0,6.49,0c2.09-4.59,4.27-9.15,6.25-13.79a7.84,7.84,0,0,1,4-4.26c4-2,8-4.06,11.94-6.13,3.31-1.57,2.65-5.48-.3-6.71-3.27-1.7-6.47-3.58-9.85-5a11.71,11.71,0,0,1-6.66-7.08c-1.55-4-3.51-7.85-5.3-11.76a3.62,3.62,0,0,0-3.31-2.41A3.56,3.56,0,0,0,113.28,17.53Z" transform="translate(0 -0.2)"/></svg>